<svg width="17" height="20" viewBox="0 0 17 20" fill="none" xmlns="http://www.w3.org/2000/svg">
<path d="M1.21427 0H12.0417L17 5V18.75C17 19.4406 16.456 20 15.7857 20H1.21427C0.543972 20 0 19.4406 0 18.75V1.24999C0 0.559387 0.544034 0 1.21427 0Z" fill="#49C1B1"/>
<path d="M12.0417 3.57143V0L17 5H13.4583C12.6759 5 12.0417 4.36041 12.0417 3.57143Z" fill="#3B988B"/>
<path d="M3.40055 9.50891H4.23063V12.3214C4.23063 12.58 4.17345 12.8088 4.05908 13.0078C3.94656 13.205 3.787 13.3575 3.58041 13.4654C3.37381 13.5733 3.14046 13.6272 2.88037 13.6272C2.45426 13.6272 2.12223 13.5184 1.88428 13.3008C1.64632 13.0813 1.52734 12.7716 1.52734 12.3716H2.36296C2.36296 12.5707 2.40446 12.7176 2.48747 12.8125C2.57048 12.9073 2.70144 12.9548 2.88037 12.9548C3.03901 12.9548 3.16536 12.8999 3.25944 12.7901C3.35352 12.6804 3.40055 12.5242 3.40055 12.3214V9.50891Z" fill="white"/>
<path d="M5.77182 12.1401V13.5714H4.94174V9.50891H6.51336C6.81588 9.50891 7.0815 9.5647 7.31022 9.67634C7.54079 9.78791 7.71787 9.94698 7.84147 10.1534C7.96508 10.3581 8.02685 10.5915 8.02685 10.8538C8.02685 11.2518 7.89127 11.5662 7.62012 11.7968C7.35081 12.0256 6.97728 12.1401 6.49952 12.1401H5.77182ZM5.77182 11.4621H6.51336C6.73287 11.4621 6.89981 11.41 7.01417 11.3058C7.13038 11.2016 7.18846 11.0528 7.18846 10.8593C7.18846 10.6603 7.13038 10.4994 7.01417 10.3766C6.89796 10.2539 6.73748 10.1906 6.53273 10.1869H5.77182V11.4621Z" fill="white"/>
<path d="M11.0235 11.8108H9.4297V12.899H11.3001V13.5714H8.59961V9.50891H11.2946V10.1869H9.4297V11.1551H11.0235V11.8108Z" fill="white"/>
<path d="M14.9746 13.058C14.8252 13.2385 14.614 13.3789 14.341 13.4793C14.068 13.5779 13.7655 13.6272 13.4334 13.6272C13.0848 13.6272 12.7786 13.551 12.5148 13.3984C12.2529 13.2441 12.05 13.0208 11.9061 12.7288C11.7641 12.4368 11.6912 12.0936 11.6875 11.6992V11.423C11.6875 11.0175 11.7549 10.6668 11.8895 10.3711C12.026 10.0735 12.2215 9.84655 12.4761 9.69027C12.7325 9.5322 13.0322 9.45312 13.3753 9.45312C13.8531 9.45312 14.2266 9.56841 14.4959 9.79912C14.7653 10.0279 14.9248 10.3618 14.9746 10.8008H14.1667C14.1298 10.5683 14.0477 10.3981 13.9204 10.2901C13.795 10.1823 13.6216 10.1283 13.4002 10.1283C13.118 10.1283 12.9031 10.2353 12.7555 10.4492C12.608 10.6631 12.5333 10.9812 12.5314 11.4034V11.6629C12.5314 12.0889 12.6117 12.4107 12.7721 12.6283C12.9326 12.846 13.1678 12.9548 13.4777 12.9548C13.7894 12.9548 14.0117 12.8878 14.1446 12.7539V12.0536H13.3891V11.4369H14.9746V13.058Z" fill="white"/>
</svg>
