<svg width="17" height="20" viewBox="0 0 17 20" fill="none" xmlns="http://www.w3.org/2000/svg">
<path d="M1.21427 0H12.0417L17 5V18.75C17 19.4406 16.456 20 15.7857 20H1.21427C0.543972 20 0 19.4406 0 18.75V1.24999C0 0.559387 0.544034 0 1.21427 0Z" fill="#FF9F98"/>
<path d="M3.86471 11.9611V13.5714H2.93088V9.0011H4.69894C5.03927 9.0011 5.3381 9.06388 5.59542 9.18938C5.85482 9.31496 6.05405 9.49388 6.19308 9.72617C6.33212 9.95638 6.40164 10.219 6.40164 10.514C6.40164 10.9619 6.24911 11.3155 5.94406 11.575C5.64108 11.8324 5.22086 11.9611 4.68338 11.9611H3.86471ZM3.86471 11.1983H4.69894C4.94589 11.1983 5.1337 11.1397 5.26236 11.0225C5.39309 10.9054 5.45846 10.738 5.45846 10.5203C5.45846 10.2964 5.39309 10.1154 5.26236 9.97731C5.13162 9.83917 4.95108 9.76803 4.72073 9.76381H3.86471V11.1983Z" fill="white"/>
<path d="M7.17349 13.5714V9.0011H8.56799C8.96643 9.0011 9.32236 9.0921 9.63566 9.27417C9.95115 9.4541 10.197 9.71153 10.3734 10.0463C10.5498 10.3791 10.638 10.7578 10.638 11.1827V11.393C10.638 11.8177 10.5508 12.1955 10.3765 12.5261C10.2043 12.8567 9.96043 13.1131 9.64501 13.2952C9.32959 13.4772 8.97372 13.5693 8.57734 13.5714H7.17349ZM8.10729 9.76381V12.8149H8.55864C8.92393 12.8149 9.20301 12.6946 9.39603 12.4539C9.58898 12.2132 9.68758 11.869 9.69169 11.4212V11.1795C9.69169 10.715 9.59628 10.3634 9.40531 10.1248C9.21441 9.88417 8.93533 9.76381 8.56799 9.76381H8.10729Z" fill="white"/>
<path d="M14.174 11.7037H12.381V13.5714H11.4472V9.0011H14.3982V9.76381H12.381V10.9441H14.174V11.7037Z" fill="white"/>
<path d="M12.0417 3.57143V0L17 5H13.4583C12.6759 5 12.0417 4.36041 12.0417 3.57143Z" fill="#FA7066"/>
</svg>
