<svg width="17" height="20" viewBox="0 0 17 20" fill="none" xmlns="http://www.w3.org/2000/svg">
<path d="M1.21427 0H12.0417L17 5V18.75C17 19.4406 16.456 20 15.7857 20H1.21427C0.543972 20 0 19.4406 0 18.75V1.24999C0 0.559387 0.544034 0 1.21427 0Z" fill="#AB93D8"/>
<path d="M12.0417 3.57143V0L17 5H13.4583C12.6759 5 12.0417 4.36041 12.0417 3.57143Z" fill="#8664C6"/>
<path d="M3.04154 9.0011L4.20572 12.3158L5.36368 9.0011H6.59012V13.5714H5.65317V12.3221L5.74655 10.1656L4.52322 13.5714H3.88199L2.66177 10.1687L2.75516 12.3221V13.5714H1.82132V9.0011H3.04154Z" fill="white"/>
<path d="M8.3395 11.9611V13.5714H7.4057V9.0011H9.17377C9.51405 9.0011 9.8129 9.06388 10.0702 9.18938C10.3296 9.31496 10.5289 9.49388 10.6679 9.72617C10.8069 9.95638 10.8765 10.219 10.8765 10.514C10.8765 10.9619 10.7239 11.3155 10.4189 11.575C10.1159 11.8324 9.69567 11.9611 9.15819 11.9611H8.3395ZM8.3395 11.1983H9.17377C9.4207 11.1983 9.60848 11.1397 9.73718 11.0225C9.86794 10.9054 9.93325 10.738 9.93325 10.5203C9.93325 10.2964 9.86794 10.1154 9.73718 9.97731C9.60642 9.83917 9.42587 9.76803 9.19552 9.76381H8.3395V11.1983Z" fill="white"/>
<path d="M12.3394 10.8845H12.8188C13.0471 10.8845 13.2162 10.8269 13.3262 10.7119C13.4362 10.5967 13.4912 10.444 13.4912 10.2536C13.4912 10.0694 13.4362 9.92607 13.3262 9.8235C13.2183 9.721 13.0689 9.66971 12.878 9.66971C12.7057 9.66971 12.5615 9.71786 12.4453 9.81407C12.3291 9.90828 12.271 10.0317 12.271 10.1845H11.3714C11.3714 9.94593 11.4347 9.7325 11.5613 9.54414C11.6899 9.35371 11.8684 9.20514 12.0966 9.09843C12.327 8.99171 12.5802 8.93835 12.8562 8.93835C13.3356 8.93835 13.7111 9.0545 13.983 9.28678C14.2549 9.51693 14.3908 9.835 14.3908 10.241C14.3908 10.4503 14.3275 10.6428 14.2009 10.8186C14.0743 10.9944 13.9083 11.1294 13.7028 11.2235C13.9581 11.3156 14.148 11.4537 14.2725 11.6379C14.3991 11.822 14.4624 12.0396 14.4624 12.2907C14.4624 12.6967 14.3151 13.0221 14.0204 13.2669C13.7278 13.5118 13.3397 13.6342 12.8562 13.6342C12.4038 13.6342 12.0334 13.5139 11.7449 13.2732C11.4586 13.0326 11.3153 12.7145 11.3153 12.319H12.2149C12.2149 12.4906 12.2782 12.6308 12.4048 12.7396C12.5335 12.8484 12.6912 12.9029 12.878 12.9029C13.0917 12.9029 13.2588 12.8464 13.3791 12.7334C13.5015 12.6182 13.5628 12.4665 13.5628 12.2782C13.5628 11.822 13.3138 11.5939 12.8157 11.5939H12.3394V10.8845Z" fill="white"/>
</svg>
