<svg width="17" height="20" viewBox="0 0 17 20" fill="none" xmlns="http://www.w3.org/2000/svg">
<path d="M1.21427 0H12.0417L17 5V18.75C17 19.4406 16.456 20 15.7857 20H1.21427C0.543972 20 0 19.4406 0 18.75V1.24999C0 0.559387 0.544034 0 1.21427 0Z" fill="#FFA978"/>
<path d="M12.0417 3.57143V0L17 5H13.4583C12.6759 5 12.0417 4.36041 12.0417 3.57143Z" fill="#FF833E"/>
<path d="M3.04157 9.0011L4.20575 12.3158L5.36371 9.0011H6.59015V13.5714H5.6532V12.3221L5.74658 10.1656L4.52325 13.5714H3.88202L2.6618 10.1687L2.75519 12.3221V13.5714H1.82135V9.0011H3.04157Z" fill="white"/>
<path d="M8.3395 11.9611V13.5714H7.4057V9.0011H9.17377C9.51405 9.0011 9.8129 9.06388 10.0702 9.18938C10.3296 9.31496 10.5289 9.49388 10.6679 9.72617C10.8069 9.95638 10.8765 10.219 10.8765 10.514C10.8765 10.9619 10.7239 11.3155 10.4189 11.575C10.1159 11.8324 9.69567 11.9611 9.15819 11.9611H8.3395ZM8.3395 11.1983H9.17377C9.4207 11.1983 9.60848 11.1397 9.73718 11.0225C9.86794 10.9054 9.93325 10.738 9.93325 10.5203C9.93325 10.2964 9.86794 10.1154 9.73718 9.97731C9.60642 9.83917 9.42587 9.76803 9.19552 9.76381H8.3395V11.1983Z" fill="white"/>
<path d="M14.0857 11.8512H14.5993V12.5826H14.0857V13.5714H13.1861V12.5826H11.3278L11.2874 12.0113L13.1768 9.0011H14.0857V11.8512ZM12.1838 11.8512H13.1861V10.2378L13.127 10.3414L12.1838 11.8512Z" fill="white"/>
</svg>
